# xmcd CD database file
#
# Track frame offsets:
#	150
#	13072
#	24472
#	36302
#	48275
#	60407
#	67025
#	77175
#	91927
#	106722
#	121540
#	137692
#	147852
#	165292
#	177977
#	187557
#	199875
#	210237
#	226557
#	241737
#
# Disc length: 3380 seconds
#
# Revision: 0
# Processed by: cddbd v1.5.2PL0 Copyright (c) Steve Scherf et al.
# Submitted via: CDex 1.51
#
DISCID=ee0d3214
DTITLE=Various Artist - The Greatest Country Love Songs Ever Volume 3
DYEAR=2000
DGENRE=Country
TTITLE0=Amanda - Don Williams
TTITLE1=Release Me - Johnny Paycheck
TTITLE2=Today, Tomorrow And Forever - Patsy Cline
TTITLE3=Blue Moon Of Kentucky - Elvis Presley
TTITLE4=Four Walls - Jim Reeves
TTITLE5=What A Difference You Made In My Life - Tammy Wynette
TTITLE6=Lonely Blue Boy - Conway Twitty
TTITLE7=Warm And Tender Love - Percy Sledge
TTITLE8=Both Sides Now - Anne Murray
TTITLE9=Woman Sentuous Woman - Don Gibson
TTITLE10=One's On The Way The Pill - Loretta Lynn
TTITLE11=Lonesome Town - Ricky Nelson
TTITLE12=I Believe In You - Don Williams
TTITLE13=Crystal Chandeliers - Charley Pride
TTITLE14=Take These Chains From My Heart - Don Gibson
TTITLE15=Poor Man's Roses - Patsy Cline
TTITLE16=Hello Mary Lou - Ricky Nelson
TTITLE17=When I Dream - Lynn Anderson
TTITLE18=Theme For Young Lovers - Deevan
TTITLE19=What Am I Living For - Conway Twitty
EXTD=YEAR: 2000
EXTT0=
EXTT1=
EXTT2=
EXTT3=
EXTT4=
EXTT5=
EXTT6=
EXTT7=
EXTT8=
EXTT9=
EXTT10=
EXTT11=
EXTT12=
EXTT13=
EXTT14=
EXTT15=
EXTT16=
EXTT17=
EXTT18=
EXTT19=
PLAYORDER=
